<svg width="22" height="22" viewBox="0 0 22 22" fill="none" 
    xmlns="http://www.w3.org/2000/svg">
    <path opacity="0.8" d="M21.6517 19.8961L12.7168 10.9612L21.5751 2.10291C22.0389 1.63911 22.0389 0.887484 21.5751 0.424015C21.1113 -0.039454 20.3597 -0.0397899 19.8962 0.424015L11.0376 9.28232L2.10269 0.347106C1.63888 -0.116699 0.887255 -0.116699 0.423786 0.347106C-0.0400188 0.810911 -0.0400188 1.56254 0.423786 2.02601L9.35866 10.9609L0.346877 19.9727C-0.116928 20.4365 -0.116928 21.1881 0.346877 21.6516C0.810682 22.1154 1.56231 22.1154 2.02578 21.6516L11.0372 12.6401L19.9721 21.575C20.4359 22.0388 21.1875 22.0388 21.651 21.575C22.1145 21.1112 22.1151 20.3599 21.6517 19.8961Z" fill="black"/>
</svg>
