<svg width="141" height="35" viewBox="0 0 141 35" fill="none" xmlns="http://www.w3.org/2000/svg">
<g clip-path="url(#clip0)">
<path d="M21.1111 0H6.76844C3.03889 0 0 2.96268 0 6.59869V28.3968C0 32.0373 3.03889 34.9955 6.76844 34.9955H21.1065C24.8406 34.9955 27.8749 32.0328 27.8749 28.3968V6.59869C27.8795 2.96268 24.8406 0 21.1111 0ZM21.1111 31.1171H6.76844C5.23058 31.1171 3.98279 29.8961 3.98279 28.4013V15.5361H11.999V7.77479H8.01623V11.6532H3.98279V6.59869C3.98279 5.0994 5.23518 3.8829 6.76844 3.8829H21.1065C22.6444 3.8829 23.8921 5.10389 23.8921 6.59869V15.4329H19.9416V7.77479H15.9588V27.1893H19.9416V19.3158H23.8921V28.3968C23.8967 29.8961 22.6444 31.1171 21.1111 31.1171Z" fill="url(#paint0_linear)"/>
<path d="M11.9994 19.4146H8.0166V27.1669H11.9994V19.4146Z" fill="url(#paint1_linear)"/>
<path d="M39.2012 27.2699V7.72974H41.9592L45.6473 18.0767H45.7026L49.3631 7.72974H52.1487V27.2699H49.2756V15.3878H49.2203L46.3748 23.7866H44.9382L42.1296 15.3878H42.0743V27.2699H39.2012Z" fill="#333333"/>
<path d="M53.5586 27.2699L58.0341 7.72974H60.4283L64.9038 27.2699H62.0307L61.1881 23.0728H57.2743L56.4317 27.2699H53.5586ZM60.6539 20.4378L59.245 13.3543H59.1898L57.7808 20.4378H60.6539Z" fill="#333333"/>
<path d="M66.6479 27.2699V10.3647H63.3281V7.72974H72.8454V10.3647H69.5256V27.2699H66.6479Z" fill="#333333"/>
<path d="M83.234 21.6992V22.9067C83.234 23.5082 83.1189 24.0828 82.8841 24.6215C82.6493 25.1601 82.327 25.6404 81.9126 26.0624C81.4982 26.4844 81.0147 26.8165 80.4622 27.0634C79.9097 27.3103 79.3111 27.436 78.6757 27.436C78.1324 27.436 77.5798 27.3642 77.0135 27.2161C76.4518 27.0679 75.9453 26.812 75.4941 26.4484C75.0428 26.0804 74.6745 25.6135 74.3798 25.0344C74.0897 24.4599 73.9424 23.7237 73.9424 22.8259V12.066C73.9424 11.4241 74.0529 10.8315 74.2785 10.2839C74.5041 9.73626 74.8218 9.26043 75.2362 8.85643C75.6506 8.45692 76.1433 8.13821 76.7142 7.90927C77.2852 7.68034 77.9206 7.56812 78.6158 7.56812C79.9649 7.56812 81.0654 7.99905 81.908 8.85643C82.3224 9.27839 82.6447 9.77666 82.8795 10.3512C83.1143 10.9258 83.2294 11.5543 83.2294 12.2321V13.3319H80.3563V12.3982C80.3563 11.8505 80.1951 11.3747 79.8774 10.9707C79.5597 10.5667 79.1269 10.3647 78.5836 10.3647C77.8699 10.3647 77.3957 10.5802 77.1608 11.0111C76.926 11.442 76.8109 11.9852 76.8109 12.6451V22.6329C76.8109 23.1985 76.9352 23.6743 77.1931 24.0604C77.4463 24.4464 77.9021 24.6349 78.5606 24.6349C78.7494 24.6349 78.9519 24.6035 79.1637 24.5407C79.3802 24.4778 79.5828 24.3701 79.7669 24.2264C79.9373 24.0783 80.0754 23.8808 80.1905 23.6249C80.301 23.3691 80.3609 23.0503 80.3609 22.6643V21.7037H83.234V21.6992Z" fill="#333333"/>
<path d="M85.5674 27.2699V7.72974H88.4405V16.1015H91.9859V7.72974H94.859V27.2699H91.9859V18.5704H88.4405V27.2699H85.5674Z" fill="#333333"/>
<path d="M97.3906 27.2698V24.4688H100.264V27.2698H97.3906Z" fill="#333333"/>
<path d="M106.531 7.72998H103.658V27.2702H106.531V7.72998Z" fill="url(#paint2_linear)"/>
<path d="M123.766 13.2783V7.72998H120.893V27.2702H123.766H126.639H128.204C128.927 27.2702 129.512 26.7001 129.512 25.9953V14.5531C129.512 13.8484 128.927 13.2783 128.204 13.2783H126.639H123.766ZM126.639 24.4691H123.766V16.0749H126.639V24.4691Z" fill="url(#paint3_linear)"/>
<path d="M115.146 13.3142H110.712C109.989 13.3142 109.404 13.8843 109.404 14.5891V14.7147V16.1153V17.5158H112.277V16.1153H115.151V18.8939H112.277H109.404V25.9999C109.404 26.7046 109.989 27.2747 110.712 27.2747H112.277H115.151H118.024V13.3232H115.151V13.3142H115.146ZM115.146 24.4736H112.273V21.6905H115.146V24.4736Z" fill="url(#paint4_linear)"/>
<path d="M141 16.5552V13.7541H135.258V13.7317H133.692C132.97 13.7317 132.385 14.3018 132.385 15.0065V21.9015H135.258H138.131V24.4692H132.389V27.2702H138.131H139.697C140.419 27.2702 141.004 26.7001 141.004 25.9954V19.1004H138.131H135.258V16.5552H141Z" fill="url(#paint5_linear)"/>
</g>
<defs>
<linearGradient id="paint0_linear" x1="8.62111" y1="1.66696" x2="20.2892" y2="38.21" gradientUnits="userSpaceOnUse">
<stop stop-color="#E41F37"/>
<stop offset="1" stop-color="#A31E3F"/>
</linearGradient>
<linearGradient id="paint1_linear" x1="3.31231" y1="3.36222" x2="14.9751" y2="39.8886" gradientUnits="userSpaceOnUse">
<stop stop-color="#E41F37"/>
<stop offset="1" stop-color="#A31E3F"/>
</linearGradient>
<linearGradient id="paint2_linear" x1="105.095" y1="8.76117" x2="105.095" y2="35.7103" gradientUnits="userSpaceOnUse">
<stop stop-color="#E41F37"/>
<stop offset="1" stop-color="#A31E3F"/>
</linearGradient>
<linearGradient id="paint3_linear" x1="125.202" y1="8.5427" x2="125.202" y2="35.5449" gradientUnits="userSpaceOnUse">
<stop stop-color="#E41F37"/>
<stop offset="1" stop-color="#A31E3F"/>
</linearGradient>
<linearGradient id="paint4_linear" x1="113.709" y1="8.54273" x2="113.709" y2="35.545" gradientUnits="userSpaceOnUse">
<stop stop-color="#E41F37"/>
<stop offset="1" stop-color="#A31E3F"/>
</linearGradient>
<linearGradient id="paint5_linear" x1="136.693" y1="8.40538" x2="136.693" y2="35.1698" gradientUnits="userSpaceOnUse">
<stop stop-color="#E41F37"/>
<stop offset="1" stop-color="#A31E3F"/>
</linearGradient>
<clipPath id="clip0">
<rect width="141" height="35" fill="white"/>
</clipPath>
</defs>
</svg>
